<svg id="Layer_1" data-name="Layer 1" xmlns="http://www.w3.org/2000/svg" viewBox="0 0 497.55 569.07"><defs><style>.cls-1{fill:#5d67af;}.cls-2{fill:#fff;}</style></defs><title>logo</title><path class="cls-1" d="M494.22,495.08l-40.45,22.18-78.53,43.06H247.79q.45,35.79,9.36,64.75L232,638.88A20.37,20.37,0,0,1,201.81,621V333.43A20.37,20.37,0,0,1,232,315.57l31.45,17.24,230.8,126.55A20.36,20.36,0,0,1,494.22,495.08Z" transform="translate(-201.81 -182.92)"/><path class="cls-1" d="M375.24,560.32,257.15,625.07q-8.91-29-9.36-64.75Z" transform="translate(-201.81 -182.92)"/><path class="cls-2" d="M688,524a138.05,138.05,0,0,0-32.62-47.38q-21.52-20.57-53.06-35.46t-72.69-23.83L482,406.54a268.11,268.11,0,0,1-34.11-9.47A117.09,117.09,0,0,1,422,384.48a51.65,51.65,0,0,1-16.24-16.65q-5.55-9.48-5-21.93A45.75,45.75,0,0,1,409.68,319q8.67-11.77,26-18.54T479,293.65q39.25,0,60.51,16.65t24,46.43H691.78q-.54-51.71-26.8-91t-73.77-61q-47.52-21.79-112-21.8-63.08,0-112.35,21.66T289.75,265a144.47,144.47,0,0,0-26.33,67.86l230.8,126.55a20.36,20.36,0,0,1,0,35.72l-40.45,22.18,20.89,4.88q30.32,7.05,49.95,15.3t29.1,19.49q9.48,11.24,9.75,26.94a47.94,47.94,0,0,1-10.56,29.78q-10.29,13-29.37,20.3t-46.16,7.31q-29.52,0-51.85-9.2T390.46,605q-12.72-17.88-14.35-44.67H247.79q.45,35.79,9.36,64.75a159.73,159.73,0,0,0,20.15,42.72Q306,710.3,357.71,731.15T479,752q69.3,0,118.44-20t75.4-57.67q26.25-37.62,26.53-90.15Q699.09,550.84,688,524Z" transform="translate(-201.81 -182.92)"/></svg>